<svg xmlns="http://www.w3.org/2000/svg" viewBox="0 0 260.14 291.61"><defs><style>.cls-1{fill:#383838;}</style></defs><g id="Capa_2" data-name="Capa 2"><g id="Capa_1-2" data-name="Capa 1"><path class="cls-1" d="M253.65,209.79a13,13,0,0,0-17.74,4.76,13.27,13.27,0,0,0-1.32,3.27H183l-34.69-60.09.6-.51.32-.28.5-.47.4-.38.38-.4c.16-.17.32-.33.47-.5l.28-.32.53-.63.19-.24c.19-.24.38-.49.56-.74l.14-.19c.19-.27.38-.54.56-.82l.11-.17c.18-.28.36-.57.53-.86l.06-.11a.41.41,0,0,0,0-.09c.16-.27.3-.54.45-.82l.16-.31c.11-.22.22-.44.32-.67s.15-.32.22-.47.13-.33.2-.49l.27-.67.09-.26c.11-.3.22-.6.31-.9v0a23.21,23.21,0,0,0,1.1-6c0-.07,0-.15,0-.23s0-.33,0-.49v-1.11c0-.12,0-.23,0-.35s0-.53,0-.8c0-.07,0-.15,0-.22a24,24,0,0,0-8.75-16.75L183,60.32h35.73a13,13,0,1,0,1.33-9.72,13.27,13.27,0,0,0-1.32,3.27H182.23L164,22.26A13,13,0,1,0,154.9,26a13.09,13.09,0,0,0,3.5-.49l17.94,31.09-34.66,60a24,24,0,0,0-31.37,14.92c0,.09,0,.17-.08.25v0c-.1.32-.2.64-.28.95s-.13.48-.19.73c-.13.54-.24,1.09-.33,1.63a.44.44,0,0,0,0,.1H39.92L22.06,104.27a13.12,13.12,0,1,0-5.58,3.21L34.74,139.1,16.48,170.72a13.06,13.06,0,1,0,5.58,3.22l18-31.09h69.37a24.71,24.71,0,0,0,.84,3.55v0c.1.3.2.6.31.89,0,.09.06.18.1.27s.17.45.26.67l.21.49c.07.15.14.31.22.47s.21.45.32.67.11.21.16.31c.14.28.29.55.44.82a.41.41,0,0,1,0,.09l.07.11c.17.29.34.58.53.86l.1.17c.19.28.37.55.57.82l.13.19c.19.25.37.5.56.74l.2.24.53.63.27.32.48.5.38.4.4.38.5.47.32.28.62.53.25.19.73.56.2.14c.27.19.54.38.82.56l.17.11.86.53.1.06.1,0c.27.16.54.3.81.45l.31.16.68.32.47.22.49.2.67.27.26.1.89.3h0a23.88,23.88,0,0,0,6.75,1.14h1.11A23.75,23.75,0,0,0,140.4,162h0c.3-.09.6-.2.89-.31l.27-.09.06,0,34.73,60.16-25.64,44.42a13,13,0,1,0,7.75,6,13.29,13.29,0,0,0-2.17-2.78l26-45.09h52.23a13,13,0,1,0,19.07-14.47ZM225.31,53.63a6.92,6.92,0,1,1,2.54,9.46A6.93,6.93,0,0,1,225.31,53.63ZM148,13a6.92,6.92,0,1,1,6.92,6.93A6.92,6.92,0,0,1,148,13ZM13,101.91A6.92,6.92,0,1,1,19.91,95,6.92,6.92,0,0,1,13,101.91Zm3.47,87.3A6.92,6.92,0,1,1,19,179.75,6.92,6.92,0,0,1,16.45,189.21Zm131.71-45.39a15.8,15.8,0,0,1-30.52-1.57v-.05a13.71,13.71,0,0,1-.22-1.43,1.1,1.1,0,0,1,0-.18c0-.44-.06-.88-.07-1.33v-.58c0-.26,0-.53,0-.79a2.28,2.28,0,0,0,0-.26c0-.28.06-.56.1-.84v-.06c0-.2.07-.39.11-.58s.11-.59.19-.89.11-.41.17-.62.17-.55.26-.82.18-.48.28-.71.19-.46.29-.68.28-.56.43-.84.19-.36.29-.53.37-.58.56-.86.2-.31.31-.46.39-.5.59-.74.27-.33.42-.49.36-.38.55-.57.37-.38.57-.56l.49-.4c.24-.21.48-.41.74-.6l.46-.31c.28-.19.56-.38.86-.56l.53-.29c.27-.15.55-.3.84-.43l.68-.29.71-.28.82-.26.63-.17c.29-.08.58-.14.87-.19l.63-.11c.28,0,.57-.08.86-.11l.69,0,.78,0,.79,0,.68,0c.29,0,.58.06.87.11l.62.1c.3.06.59.12.88.2l.63.17.81.26.72.28.68.29c.28.13.56.28.84.43l.52.29c.3.18.58.37.87.56l.46.31.74.59.49.41c.19.18.38.37.56.56s.38.37.56.57l.41.49c.2.24.41.48.59.74l.32.46c.19.28.38.56.56.86s.19.35.28.53.3.55.43.84.2.45.29.68.2.47.28.71.18.54.26.82.13.41.18.62.13.59.19.89.08.41.11.62.07.57.1.86,0,.39.05.59a1.09,1.09,0,0,0,0,.18c0,.24,0,.47,0,.7s0,.3,0,.45,0,.49,0,.73,0,.2,0,.3,0,.28,0,.43c0,.36-.09.71-.16,1.06,0,.13-.06.25-.08.38a11.93,11.93,0,0,1-.32,1.21A.75.75,0,0,1,148.16,143.82Zm2.55,140.8a6.92,6.92,0,1,1,2.53-9.46A6.93,6.93,0,0,1,150.71,284.62ZM253.15,224.5a6.92,6.92,0,1,1-2.53-9.46A6.91,6.91,0,0,1,253.15,224.5Z"/></g></g></svg>